<?xml version="1.0" encoding="iso-8859-1"?>
<!-- Uploaded to: SVG Repo, www.svgrepo.com, Generator: SVG Repo Mixer Tools -->
<svg height="92px" width="92px" version="1.1" id="Layer_1" xmlns="http://www.w3.org/2000/svg" xmlns:xlink="http://www.w3.org/1999/xlink"
	 viewBox="0 0 512 512" xml:space="preserve">
<path style="fill:#FFE6B8;" d="M469.673,391.038H42.327c-17.744,0-32.127-14.384-32.127-32.128V153.089
	c0-17.744,14.384-32.127,32.127-32.127h427.347c17.744,0,32.128,14.384,32.128,32.127v205.822
	C501.801,376.655,487.417,391.038,469.673,391.038z"/>
<circle style="fill:#D35B38;" cx="103.522" cy="211.226" r="38.247"/>
<g>
	<path style="fill:#4D3D36;" d="M469.673,401.238H42.327C18.988,401.238,0,382.25,0,358.911V153.089
		c0-23.339,18.988-42.327,42.327-42.327h427.347c23.339,0,42.327,18.988,42.327,42.327v205.823
		C512,382.25,493.012,401.238,469.673,401.238z M42.327,131.161c-12.091,0-21.928,9.837-21.928,21.928v205.823
		c0,12.091,9.837,21.928,21.928,21.928h427.347c12.091,0,21.928-9.837,21.928-21.928V153.089c0-12.091-9.837-21.928-21.928-21.928
		H42.327z"/>
	<path style="fill:#4D3D36;" d="M103.522,259.671c-26.713,0-48.446-21.733-48.446-48.446s21.733-48.446,48.446-48.446
		s48.446,21.733,48.446,48.446S130.235,259.671,103.522,259.671z M103.522,183.177c-15.465,0-28.048,12.583-28.048,28.048
		s12.583,28.048,28.048,28.048s28.048-12.583,28.048-28.048S118.987,183.177,103.522,183.177z"/>
	<path style="fill:#4D3D36;" d="M339.633,220.914h-14.279c-5.632,0-10.199-4.567-10.199-10.199s4.567-10.199,10.199-10.199h14.279
		c5.632,0,10.199,4.567,10.199,10.199S345.265,220.914,339.633,220.914z"/>
	<path style="fill:#4D3D36;" d="M289.657,220.914H186.645c-5.632,0-10.199-4.567-10.199-10.199s4.567-10.199,10.199-10.199h103.012
		c5.632,0,10.199,4.567,10.199,10.199S295.289,220.914,289.657,220.914z"/>
	<path style="fill:#4D3D36;" d="M446.725,301.487h-126.47c-5.632,0-10.199-4.567-10.199-10.199c0-5.632,4.567-10.199,10.199-10.199
		h126.47c5.632,0,10.199,4.567,10.199,10.199C456.924,296.92,452.357,301.487,446.725,301.487z"/>
	<path style="fill:#4D3D36;" d="M446.725,345.344H202.964c-5.632,0-10.199-4.567-10.199-10.199s4.567-10.199,10.199-10.199h243.761
		c5.632,0,10.199,4.567,10.199,10.199S452.357,345.344,446.725,345.344z"/>
</g>
</svg>
